{"title":"Stieg Larsson Millennium Trilogy 2009 (Full Original TV Version)","uid":6990720,"size":3249641894,"categoryP":"video","categoryS":"hd___movies","magnet":"?xt=urn:btih:db9b9d2582724c8981e59890d674b5c8e2118207&amp;dn=Stieg+Larsson+Millennium+Trilogy+2009+%28Full+Original+TV+Version%29&amp;tr=udp%3A%2F%2Ftracker.openbittorrent.com%3A80&amp;tr=udp%3A%2F%2Fopen.demonii.com%3A1337&amp;tr=udp%3A%2F%2Ftracker.coppersurfer.tk%3A6969&amp;tr=udp%3A%2F%2Fexodus.desync.com%3A6969","seeders":0,"leechers":3,"uploader":"grey.shadow","files":4,"time":1327694081,"description":"***************************************************************\n\n[IMG]http://i1113.photobucket.com/albums/k502/chrisdeloon/greyshadowsig25-1-2012.png[/IMG]\n\n***************************************************************\n\n[IMG]http://i1113.photobucket.com/albums/k502/chrisdeloon/stieglarssonExtendedmilleniumtrilogyposter.png[/IMG]\n\n***************************************************************\n\nFILM TITLE: The girl Who kicked The Hornets nest 2009 (Full Original TV Version) [Part 5 of 6]\n\nORIGINAL TITLE: Luftslottet Som Sprangdes\n\n***************************************************************\n\n[IMG]http://i1113.photobucket.com/albums/k502/chrisdeloon/stieglarssonepisodelist.png[/IMG]\n\n***************************************************************\n\nGenre:  Crime | Drama | Mystery  \n\nRated R for disturbing violent content including rape, grisly images, \nsexual material, nudity and language\n\nRelease: Scandinavia in 2009.\n\nDirector: Niels Arden Oplev\n\nWriter: Nikolaj Arcel (screenplay), Rasmus Heisterberg (screenplay), Stieg Larsson (novel)\n\nStars: Michael Nyqvist, Noomi Rapace and Ewa FrÃƒÂ¶ling\n\nCountry: Sweden | Denmark | Germany | Norway\n\nLanguage: Swedish | English\n\nPlot:\nA journalist is aided in his search for a woman who has been missing -- or dead\n-- for forty years by a young female hacker.\n\nIMDB Rating: 8.1/10 from 445 users\n &lt;a href=&quot;\nhttp://www.imdb.com/title/tt1634549/&quot; rel=&quot;nofollow&quot; target=&quot;_NEW&quot;&gt;\nhttp://www.imdb.com/title/tt1634549/&lt;/a&gt; \n\n****************************************************************\n\n[IMG]http://i1113.photobucket.com/albums/k502/chrisdeloon/stieglarssonpart5xvidvdub.png[/IMG]\n[IMG]http://i1113.photobucket.com/albums/k502/chrisdeloon/stiegpart5xvid1.png[/IMG]\n[IMG]http://i1113.photobucket.com/albums/k502/chrisdeloon/stiegpart5xvid2.png[/IMG]\n[IMG]http://i1113.photobucket.com/albums/k502/chrisdeloon/stiegpart5xvid3.png[/IMG]\n[IMG]http://i1113.photobucket.com/albums/k502/chrisdeloon/stiegpart5xvid4.png[/IMG]\n\n****************************************************************\n\nGeneral\nComplete name                    : Stieg Larsson Millennium Trilogy 2009 (Full Original TV Version) [Part 5 of 6] 720p BDRip XviD swe-ac3 eng-hardsub (avi) [GREYSHADOW]\nFormat                           : AVI\nFormat/Info                      : Audio Video Interleave\nFormat profile                   : OpenDML\nFile size                        : 2.99 GiB\nDuration                         : 1h 32mn\nOverall bit rate                 : 4 637 Kbps\nWriting library                  : VirtualDub build 32842/release\n\nVideo\nID                               : 0\nFormat                           : MPEG-4 Visual\nFormat profile                   : Simple@L5\nFormat settings, BVOP            : No\nFormat settings, QPel            : No\nFormat settings, GMC             : No warppoints\nFormat settings, Matrix          : Default (H.263)\nCodec ID                         : XVID\nCodec ID/Hint                    : XviD\nDuration                         : 1h 32mn\nBit rate                         : 3 987 Kbps\nWidth                            : 1 280 pixels\nHeight                           : 720 pixels\nDisplay aspect ratio             : 16:9\nFrame rate                       : 23.976 fps\nColor space                      : YUV\nChroma subsampling               : 4:2:0\nBit depth                        : 8 bits\nScan type                        : Progressive\nCompression mode                 : Lossy\nBits/(Pixel*Frame)               : 0.180\nStream size                      : 2.57 GiB (86%)\nWriting library                  : XviD 64\n\nAudio\nID                               : 1\nFormat                           : AC-3\nFormat/Info                      : Audio Coding 3\nMode extension                   : CM (complete main)\nCodec ID                         : 2000\nDuration                         : 1h 32mn\nBit rate mode                    : Constant\nBit rate                         : 640 Kbps\nChannel(s)                       : 6 channels\nChannel positions                : Front: L C R, Side: L R, LFE\nSampling rate                    : 48.0 KHz\nBit depth                        : 16 bits\nCompression mode                 : Lossy\nStream size                      : 423 MiB (14%)\nAlignment                        : Aligned on interleaves\nInterleave, duration             : 42 ms (1.00 video frame)\nInterleave, preload duration     : 512 ms\n\n****************************************************************\n\nVideo Source: Video Source: The Girl with the Dragon Tattoo (Millennium Trilogy 1 of 3) - Man Som Hatar Kvinnor 2009 EXTENDED 1080p GBP Blu-ray AVC DTS-HD MA 5.1\n\nThanks: chdbits.org\n\n****************************************************************\n\nI provide a small sample, so please download this to check your \ncompatibility first if you are unsure.\n\n****************************************************************\n\nHash: DB9B9D2582724C8981E59890D674B5C8E2118207\n\nTrackers:\n.udp://tracker.1337x.org:80/announce\n.udp://tracker.openbittorrent.com:80/announce\n\n\n****************************************************************","torrent":{"xt":"urn:btih:db9b9d2582724c8981e59890d674b5c8e2118207","amp;dn":"Stieg+Larsson+Millennium+Trilogy+2009+%28Full+Original+TV+Version%29","amp;tr":["udp%3A%2F%2Ftracker.openbittorrent.com%3A80","udp%3A%2F%2Fopen.demonii.com%3A1337","udp%3A%2F%2Ftracker.coppersurfer.tk%3A6969","udp%3A%2F%2Fexodus.desync.com%3A6969"],"infoHash":"db9b9d2582724c8981e59890d674b5c8e2118207","infoHashBuffer":{"type":"Buffer","data":[219,155,157,37,130,114,76,137,129,229,152,144,214,116,181,200,226,17,130,7]},"announce":[],"urlList":[]}}